<svg width="320" height="190" viewBox="0 0 320 190" xmlns="http://www.w3.org/2000/svg">
  <rect width="320" height="190" rx="22" fill="#f9fafb"/>
  <rect x="18" y="20" width="70" height="14" rx="7" fill="#d1d5db"/>
  <rect x="98" y="20" width="40" height="14" rx="7" fill="#e5e7eb"/>
  <rect x="148" y="20" width="40" height="14" rx="7" fill="#e5e7eb"/>

  <rect x="18" y="52" width="88" height="54" rx="12" fill="#eff6ff"/>
  <rect x="116" y="52" width="88" height="54" rx="12" fill="#fef3c7"/>
  <rect x="214" y="52" width="88" height="54" rx="12" fill="#fee2e2"/>

  <rect x="24" y="60" width="60" height="10" rx="4" fill="#1d4ed8"/>
  <rect x="24" y="78" width="46" height="8" rx="4" fill="#60a5fa"/>

  <rect x="122" y="60" width="60" height="10" rx="4" fill="#f59e0b"/>
  <rect x="122" y="78" width="46" height="8" rx="4" fill="#fbbf24"/>

  <rect x="220" y="60" width="60" height="10" rx="4" fill="#ef4444"/>
  <rect x="220" y="78" width="46" height="8" rx="4" fill="#fca5a5"/>
</svg>
